<svg xmlns="http://www.w3.org/2000/svg" viewBox="0 0 3618 1200" width="543" height="180" fill="#111"><g transform="translate(0,920) scale(1,-1)"><path d="M149 -11V74H61V381H149V467H453V381H542V125H631V-11H503V74H453V-11ZM188 125H414V331H188Z"/></g><g transform="translate(692,920) scale(1,-1)"><path d="M61 -11V467H365V381H414V467H631V381H718V-11H592V331H453V-11H326V331H188V-11Z"/></g><g transform="translate(1471,920) scale(1,-1)"><path d="M61 -177V381H149V467H453V381H542V74H453V-11H188V-177ZM188 125H414V331H188Z"/></g><g transform="translate(2074,920) scale(1,-1)"><path d="M61 -11V467H188V-11ZM61 501V638H188V501Z"/></g><g transform="translate(2323,920) scale(1,-1)"><path d="M61 -11V125H149V211H237V246H149V331H61V467H188V381H276V297H326V381H414V467H542V331H453V246H365V211H453V125H542V-11H414V74H326V160H276V74H188V-11Z"/></g><g transform="translate(2926,920) scale(1,-1)"><path d="M149 -11V74H61V381H149V467H453V381H542V125H631V-11H503V74H453V-11ZM188 125H414V331H188Z"/></g></svg>
